<?xml version="1.0" encoding="utf-8"?>
<!-- Generator: Adobe Illustrator 19.1.1, SVG Export Plug-In . SVG Version: 6.00 Build 0)  -->
<svg version="1.1" id="Layer_1" xmlns="http://www.w3.org/2000/svg" xmlns:xlink="http://www.w3.org/1999/xlink" x="0px" y="0px"
	 viewBox="-193 349 207.6 143.9" style="enable-background:new -193 349 207.6 143.9;" xml:space="preserve">
<style type="text/css">
	.st0{enable-background:new    ;}
	.st1{fill:#633D90;}
</style>
<g class="st0">
	<path class="st1" d="M-136.2,438.9v13.9h-28.5l0.2-7.1l0.1-5.7v-1h-1.4l-4.9-0.1l-11.3,0.2l-3,0.1c-1.8,0-3-0.2-3.7-0.5
		s-1-0.9-1-1.7c0-0.6,0.3-1.3,1-2.1c0.7-0.8,2.4-2.8,5.3-5.9l47.3-50.6l-0.1,3.6l-0.2,17l-0.1,20.7l0.2,15.7c0.4,0.1,0.7,0.1,1,0.1
		c0.2,0,0.5-0.1,0.9-0.2l5.5-0.2l1.5-0.1c1.1,0,1.6,0.6,1.6,1.9c0,1.1-0.4,1.7-1.3,1.8c-0.2,0.1-1.4,0.1-3.7,0.2L-136.2,438.9
		L-136.2,438.9z M-164.4,435.7v-21.8l-20.2,21.7c3.3,0.1,6.5,0.2,9.6,0.2L-164.4,435.7z"/>
</g>
<g class="st0">
	<path class="st1" d="M0.8,438.9v13.9h-28.5l0.2-7.1l0.1-5.7v-1h-1.4l-4.9-0.1l-11.3,0.2l-3,0.1c-1.8,0-3-0.2-3.7-0.5s-1-0.9-1-1.7
		c0-0.6,0.3-1.3,1-2.1c0.7-0.8,2.4-2.8,5.3-5.9l47.3-50.6L0.8,382l-0.2,17l0,20.8l0.2,15.7c0.4,0.1,0.7,0.1,1,0.1
		c0.2,0,0.5-0.1,0.9-0.2l5.5-0.2l1.4-0.2c1.1,0,1.6,0.6,1.6,1.9c0,1.1-0.4,1.7-1.3,1.8c-0.2,0.1-1.4,0.1-3.7,0.2H0.8z M-27.4,435.7
		v-21.8l-20.2,21.7c3.3,0.1,6.5,0.2,9.6,0.2L-27.4,435.7z"/>
</g>
</svg>
