<?xml version="1.0" encoding="utf-8"?>
<!-- Generator: Adobe Illustrator 19.1.1, SVG Export Plug-In . SVG Version: 6.00 Build 0)  -->
<svg version="1.1" id="Layer_1" xmlns="http://www.w3.org/2000/svg" xmlns:xlink="http://www.w3.org/1999/xlink" x="0px" y="0px"
	 viewBox="-241 406.1 113 29.8" style="enable-background:new -241 406.1 113 29.8;" xml:space="preserve">
<style type="text/css">
	.st0{fill:#633D90;}
</style>
<g>
	<g id="Layer_x0020_1">
		<path class="st0" d="M-146.5,408.9l-1.9,1.9c-0.2,0.2-0.5,0.2-0.7,0c-0.2-0.2-0.2-0.5,0-0.7l1.9-1.9c0.2-0.2,0.5-0.2,0.7,0
			C-146.3,408.4-146.3,408.7-146.5,408.9z"/>
		<path class="st0" d="M-163,408.2l1.8,1.9c0.2,0.2,0.2,0.5,0,0.7c-0.2,0.2-0.5,0.2-0.7,0l-1.9-1.9c-0.2-0.2-0.2-0.5,0-0.7
			C-163.5,408-163.2,408-163,408.2L-163,408.2z"/>
		<path class="st0" d="M-167.6,416.3c0.3-0.3,0.7-0.5,1.2-0.5s0.9,0.2,1.2,0.5c0.3,0.3,0.5,0.7,0.5,1.2v5.5c0,0.5-0.2,0.9-0.5,1.2
			c-0.3,0.3-0.7,0.5-1.2,0.5s-0.9-0.2-1.2-0.5c-0.3-0.3-0.5-0.7-0.5-1.2v-5.5C-168.1,417-167.9,416.6-167.6,416.3L-167.6,416.3z"/>
		<path class="st0" d="M-143.8,415.8c0.5,0,0.9,0.2,1.2,0.5c0.3,0.3,0.5,0.7,0.5,1.2l0,0v5.5l0,0c0,0.5-0.2,0.9-0.5,1.2
			c-0.3,0.3-0.7,0.5-1.2,0.5s-0.9-0.2-1.2-0.5c-0.3-0.3-0.5-0.7-0.5-1.2v-5.5c0-0.5,0.2-0.9,0.5-1.2
			C-144.6,416-144.2,415.8-143.8,415.8L-143.8,415.8z"/>
		<path class="st0" d="M-163.9,425.9v-10v-0.3h0.3h17.1h0.3v0.3v10c0,0.5-0.2,0.9-0.5,1.2c-0.5,0.5-1.1,0.7-1.4,0.7h-1.9v3.9
			c0,0.5-0.2,0.9-0.5,1.2s-0.7,0.5-1.2,0.5s-0.9-0.2-1.2-0.5c-0.3-0.3-0.5-0.7-0.5-1.2v-3.9h-3.3v3.9c0,0.5-0.2,0.9-0.5,1.2
			s-0.7,0.5-1.2,0.5s-0.9-0.2-1.2-0.5s-0.5-0.7-0.5-1.2v-3.9h-1.8c-0.2,0-0.9-0.2-1.4-0.7C-163.6,426.8-163.9,426.4-163.9,425.9
			L-163.9,425.9z"/>
		<path class="st0" d="M-148.4,410.5l-0.4-0.4l-0.2-0.2l0,0c-0.8-0.7-1.7-1.2-2.8-1.5c-1-0.3-2.1-0.5-3.2-0.5
			c-1.2,0-2.3,0.2-3.3,0.6c-1.1,0.4-2,0.9-2.8,1.6l0,0l-0.1,0.1l-0.4,0.4l-0.4,0.2l0,0c-0.6,0.7-1.1,1.4-1.4,2.2
			c-0.2,0.6-0.4,1.3-0.5,2h17.6c-0.1-0.7-0.2-1.4-0.5-2c-0.3-0.8-0.8-1.6-1.5-2.3l0,0L-148.4,410.5L-148.4,410.5z M-152.5,411.3
			c0.2-0.2,0.6-0.4,1-0.4s0.7,0.2,1,0.4c0.2,0.2,0.4,0.6,0.4,1s-0.2,0.7-0.4,1c-0.2,0.2-0.6,0.4-1,0.4l0,0c-0.4,0-0.7-0.2-1-0.4
			c-0.2-0.2-0.4-0.6-0.4-1S-152.8,411.5-152.5,411.3L-152.5,411.3z M-158.7,410.9c0.4,0,0.7,0.2,1,0.4c0.3,0.2,0.4,0.6,0.4,1
			s-0.2,0.7-0.4,1c-0.2,0.2-0.6,0.4-1,0.4s-0.7-0.2-1-0.4c-0.2-0.2-0.4-0.6-0.4-1s0.2-0.7,0.4-1C-159.4,411-159.1,410.9-158.7,410.9
			L-158.7,410.9z"/>
		<path class="st0" d="M-157.9,412.2c0-0.2-0.1-0.4-0.2-0.6c-0.1-0.1-0.4-0.2-0.6-0.2s-0.4,0.1-0.6,0.2c-0.1,0.1-0.2,0.4-0.2,0.6
			c0,0.2,0.1,0.4,0.2,0.6c0.2,0.2,0.4,0.3,0.6,0.3s0.4-0.1,0.6-0.2C-158,412.7-157.9,412.5-157.9,412.2L-157.9,412.2z"/>
		<path class="st0" d="M-150.7,412.2c0-0.2-0.1-0.4-0.2-0.6c-0.1-0.1-0.4-0.2-0.6-0.2c-0.2,0-0.4,0.1-0.6,0.2
			c-0.1,0.1-0.2,0.4-0.2,0.6c0,0.2,0.1,0.4,0.2,0.6c0.1,0.2,0.3,0.3,0.5,0.3l0,0c0.2,0,0.4-0.1,0.6-0.2
			C-150.8,412.7-150.7,412.5-150.7,412.2L-150.7,412.2z"/>
	</g>
	<g>
		<path class="st0" d="M-220.6,415.1c0,0.8-0.2,1.4-0.7,2c-0.5,0.6-1.1,0.9-1.9,0.9h-1.4l-0.2-1.1h1.2c0.5,0,0.9-0.1,1.3-0.4
			c0.4-0.3,0.6-0.7,0.6-1.2v-3.4h1.1V415.1z M-220.7,409.1c0,0.2-0.1,0.4-0.2,0.5c-0.1,0.1-0.3,0.2-0.5,0.2c-0.5,0-0.8-0.2-0.8-0.7
			c0-0.4,0.3-0.6,0.8-0.6C-220.9,408.4-220.7,408.7-220.7,409.1z"/>
		<path class="st0" d="M-217.8,415.3h-1v-6.8h1V415.3z"/>
		<path class="st0" d="M-203.6,415.3c-0.8,0-1.4-0.1-1.7-0.4c-0.4,0.3-0.7,0.4-1,0.4h-5.6c-0.4,0-0.8-0.2-1.1-0.5
			c-0.3-0.3-0.4-0.7-0.4-1.2v-1.7h1.1v1.5c0,0.3,0.1,0.5,0.2,0.6c0.1,0.1,0.3,0.2,0.6,0.2h4.9c0.3,0,0.5-0.1,0.6-0.2
			s0.2-0.3,0.2-0.6v-1.5h1.1v1.4c0,0.5,0.4,0.8,1.2,0.8v1.2H-203.6z M-209.4,410.2c0,0.2-0.1,0.3-0.2,0.4c-0.1,0.1-0.3,0.2-0.4,0.2
			c-0.5,0-0.8-0.2-0.8-0.6c0-0.4,0.2-0.6,0.7-0.6S-209.4,409.8-209.4,410.2z M-207.3,410.2c0,0.2-0.1,0.3-0.2,0.4
			c-0.1,0.1-0.3,0.2-0.5,0.2c-0.5,0-0.8-0.2-0.8-0.6c0-0.4,0.2-0.6,0.7-0.6S-207.3,409.8-207.3,410.2z"/>
		<path class="st0" d="M-199.1,413.6c0,0.5-0.1,0.8-0.5,1.2c-0.4,0.3-0.8,0.5-1.2,0.5h-3.2v-1h3.2c0.4,0,0.6-0.3,0.6-0.8
			c-0.5,0-1.2,0-1.9-0.1c-0.6-0.3-0.9-0.8-0.9-1.5c0-0.5,0.2-0.9,0.5-1.2c0.3-0.3,0.7-0.5,1.2-0.5c0.4,0,0.8,0.1,1.1,0.3
			c0.6,0.4,0.9,0.9,0.9,1.8L-199.1,413.6z M-200.3,412.4c0-0.8-0.4-1.2-1-1.2c-0.5,0-0.7,0.2-0.7,0.6c0,0.3,0.1,0.5,0.3,0.6
			c0.1,0,0.3,0,0.7,0.1h0.7V412.4z M-200.5,408.8c0,0.2-0.1,0.4-0.2,0.5c-0.1,0.1-0.3,0.3-0.5,0.3c-0.5,0-0.8-0.2-0.8-0.7
			c0-0.4,0.2-0.6,0.7-0.6C-200.7,408.2-200.5,408.4-200.5,408.8z"/>
		<path class="st0" d="M-195.5,415.3c-0.9,0-1.5-0.2-1.9-0.5c-0.2-0.2-0.4-0.6-0.4-1.1v-5h1.1v4.5c0,0.5,0.1,0.8,0.2,0.9
			c0.2,0,0.5,0.1,1,0.1V415.3z"/>
		<path class="st0" d="M-192.2,413.5c0,0.5-0.1,0.9-0.4,1.2c-0.3,0.4-0.7,0.5-1.1,0.5h-2.3v-1h2c0.3,0,0.5-0.1,0.6-0.2
			c0.1-0.1,0.2-0.3,0.2-0.6v-1.5h1.1L-192.2,413.5L-192.2,413.5z M-194.4,417.3c0,0.2-0.1,0.3-0.2,0.4c-0.1,0.1-0.3,0.2-0.5,0.2
			c-0.2,0-0.4-0.1-0.5-0.2c-0.2-0.1-0.2-0.3-0.2-0.5c0-0.4,0.2-0.6,0.7-0.6C-194.6,416.7-194.4,416.9-194.4,417.3z M-192.3,417.3
			c0,0.2-0.1,0.3-0.2,0.4c-0.1,0.1-0.3,0.2-0.5,0.2s-0.4-0.1-0.5-0.2c-0.2-0.1-0.2-0.3-0.2-0.5c0-0.4,0.2-0.6,0.7-0.6
			C-192.6,416.7-192.3,416.9-192.3,417.3z"/>
		<path class="st0" d="M-187.3,415.1c0,0.8-0.2,1.4-0.7,2c-0.5,0.6-1.1,0.9-1.9,0.9h-1.4l-0.2-1.1h1.2c0.5,0,0.9-0.1,1.3-0.4
			c0.4-0.3,0.6-0.7,0.6-1.2v-3.4h1.1C-187.3,411.9-187.3,415.1-187.3,415.1z"/>
		<path class="st0" d="M-181.1,413.9c0,0.4-0.2,0.8-0.5,1c-0.3,0.2-0.7,0.4-1.1,0.4h-3.3l-0.1-1h3.3c0.4,0,0.6-0.1,0.6-0.4
			c0-0.1-0.1-0.3-0.2-0.4l-2.4-2.5l0.8-0.8l2.4,2.5C-181.3,413-181.1,413.4-181.1,413.9z"/>
		<path class="st0" d="M-220.8,431.9c-0.5,0.2-1.4,0.4-2.5,0.4c-1.2,0-2.2-0.3-3-1.1c-0.7-0.7-1.1-1.8-1.1-3c0-2.4,1.7-4.2,4.4-4.2
			c0.9,0,1.7,0.2,2,0.4l-0.3,0.9c-0.4-0.2-1-0.3-1.8-0.3c-2,0-3.3,1.2-3.3,3.3s1.2,3.3,3.1,3.3c0.7,0,1.2-0.1,1.4-0.2V429h-1.6v-0.8
			h2.7V431.9z"/>
		<path class="st0" d="M-213.9,429.3c0,2.1-1.5,3.1-2.9,3.1c-1.6,0-2.8-1.2-2.8-3c0-1.9,1.3-3.1,2.9-3.1
			C-215,426.3-213.9,427.5-213.9,429.3z M-218.5,429.4c0,1.3,0.7,2.2,1.8,2.2c1,0,1.8-0.9,1.8-2.3c0-1-0.5-2.2-1.7-2.2
			C-218,427.1-218.5,428.3-218.5,429.4z"/>
		<path class="st0" d="M-207.3,429.3c0,2.1-1.5,3.1-2.9,3.1c-1.6,0-2.8-1.2-2.8-3c0-1.9,1.3-3.1,2.9-3.1
			C-208.4,426.3-207.3,427.5-207.3,429.3z M-211.9,429.4c0,1.3,0.7,2.2,1.8,2.2c1,0,1.8-0.9,1.8-2.3c0-1-0.5-2.2-1.7-2.2
			C-211.4,427.1-211.9,428.3-211.9,429.4z"/>
		<path class="st0" d="M-201,426.5c0,0.4,0,0.9,0,1.6v3.4c0,1.3-0.3,2.1-0.8,2.7c-0.6,0.5-1.4,0.7-2.1,0.7c-0.7,0-1.5-0.2-1.9-0.5
			l0.3-0.8c0.4,0.2,1,0.5,1.7,0.5c1.1,0,1.9-0.6,1.9-2v-0.6l0,0c-0.3,0.5-0.9,1-1.8,1c-1.4,0-2.5-1.2-2.5-2.8c0-2,1.3-3.1,2.6-3.1
			c1,0,1.6,0.5,1.8,1l0,0v-0.9h0.8V426.5z M-202.1,428.7c0-0.2,0-0.3-0.1-0.5c-0.2-0.6-0.7-1.1-1.5-1.1c-1,0-1.7,0.9-1.7,2.2
			c0,1.1,0.6,2.1,1.7,2.1c0.6,0,1.2-0.4,1.5-1.1c0.1-0.2,0.1-0.4,0.1-0.6V428.7z"/>
		<path class="st0" d="M-199.3,423.7h1.1v8.5h-1.1V423.7z"/>
		<path class="st0" d="M-195.8,429.5c0,1.4,0.9,2,2,2c0.8,0,1.2-0.1,1.6-0.3l0.2,0.8c-0.4,0.2-1,0.4-1.9,0.4c-1.8,0-2.9-1.2-2.9-2.9
			c0-1.7,1-3.1,2.7-3.1c1.9,0,2.4,1.7,2.4,2.7c0,0.2,0,0.4,0,0.5h-4.1V429.5z M-192.7,428.8c0-0.7-0.3-1.7-1.5-1.7
			c-1.1,0-1.5,1-1.6,1.7H-192.7z"/>
		<path class="st0" d="M-187.8,424.3c0.5-0.1,1.2-0.2,2-0.2c1,0,1.8,0.2,2.3,0.7c0.4,0.4,0.7,1,0.7,1.7c0,0.7-0.2,1.3-0.6,1.7
			c-0.6,0.6-1.5,0.9-2.6,0.9c-0.3,0-0.6,0-0.8-0.1v3.2h-1V424.3z M-186.8,428.2c0.2,0.1,0.5,0.1,0.9,0.1c1.3,0,2-0.6,2-1.7
			c0-1.1-0.8-1.6-1.9-1.6c-0.5,0-0.8,0-1,0.1V428.2z"/>
		<path class="st0" d="M-181.5,423.7h1.1v8.5h-1.1V423.7z"/>
		<path class="st0" d="M-175.5,432.3l-0.1-0.7l0,0c-0.3,0.5-0.9,0.9-1.8,0.9c-1.2,0-1.8-0.8-1.8-1.7c0-1.4,1.2-2.2,3.5-2.2v-0.1
			c0-0.5-0.1-1.3-1.3-1.3c-0.5,0-1.1,0.2-1.5,0.4l-0.2-0.7c0.5-0.3,1.2-0.5,1.9-0.5c1.8,0,2.2,1.2,2.2,2.4v2.2c0,0.5,0,1,0.1,1.4h-1
			V432.3z M-175.7,429.3c-1.2,0-2.5,0.2-2.5,1.3c0,0.7,0.5,1,1,1c0.8,0,1.2-0.5,1.4-1c0-0.1,0.1-0.2,0.1-0.3V429.3z"/>
		<path class="st0" d="M-172.6,426.5l1.3,3.4c0.1,0.4,0.3,0.8,0.4,1.2l0,0c0.1-0.3,0.2-0.8,0.4-1.2l1.2-3.4h1.1l-1.6,4.1
			c-0.8,2-1.3,3-2,3.6c-0.5,0.5-1,0.6-1.3,0.7l-0.3-0.9c0.3-0.1,0.6-0.3,0.9-0.5c0.3-0.2,0.6-0.6,0.9-1.2c0-0.1,0.1-0.2,0.1-0.3
			s0-0.1-0.1-0.3l-2.1-5.3h1.1V426.5z"/>
	</g>
</g>
</svg>
