<?xml version="1.0" encoding="utf-8"?>
<!-- Generator: Adobe Illustrator 19.1.1, SVG Export Plug-In . SVG Version: 6.00 Build 0)  -->
<svg version="1.1" id="Layer_1" xmlns="http://www.w3.org/2000/svg" xmlns:xlink="http://www.w3.org/1999/xlink" x="0px" y="0px"
	 viewBox="-284 407.5 26.7 27.4" style="enable-background:new -284 407.5 26.7 27.4;" xml:space="preserve">
<style type="text/css">
	.st0{fill:#633D90;}
</style>
<g>
	<path class="st0" d="M-271.5,407.5c0.6,0,1.2,0,1.8,0c0.1,0,0.1,0,0.2,0c1.3,0.1,2.6,0.4,3.8,0.9c4.3,1.9,6.9,5.1,7.9,9.8
		c0.1,0.4,0.1,0.9,0.2,1.3c0,0.6,0,1.2,0,1.8c0,0.1,0,0.1,0,0.2c-0.1,0.6-0.1,1.1-0.3,1.7c-1.4,6.6-7.8,11.1-14.5,10.1
		c-2.1-0.3-4.1-1.1-5.9-2.4c-4.1-3.1-5.8-7.2-5.2-12.3c0.3-2.5,1.3-4.8,3-6.7c2-2.3,4.6-3.8,7.6-4.3
		C-272.5,407.6-272,407.6-271.5,407.5z M-282.1,420.5c0,6.3,5.1,11.4,11.4,11.5c6.3,0,11.5-5.1,11.5-11.4c0-6.3-5.1-11.5-11.4-11.5
		C-277,409.1-282.1,414.2-282.1,420.5z"/>
	<path class="st0" d="M-269.4,425.3c-0.1-0.1-0.2-0.2-0.3-0.2c0.8-0.5,1.7-1,2.5-1.5c0,0.7-0.4,1.3-1,1.7
		C-268.6,425.3-269,425.3-269.4,425.3z"/>
	<path class="st0" d="M-265.9,419.2c-0.1,0.1-0.2,0.3-0.2,0.4c-0.5-0.8-0.9-1.7-1.4-2.5c0.7,0,1.2,0.4,1.6,1
		C-265.9,418.4-265.9,418.8-265.9,419.2z"/>
	<path class="st0" d="M-272.2,415.7c0.2,0.1,0.4,0.2,0.5,0.2c-0.8,0.5-1.6,0.9-2.4,1.4c0-0.7,0.5-1.2,1.1-1.6
		C-272.7,415.7-272.4,415.7-272.2,415.7z"/>
	<path class="st0" d="M-266.6,420.5c0,2.2-1.9,4.1-4.1,4.1c-2.2,0-4-1.8-4-4.1c0-2.2,1.9-4.1,4.1-4.1
		C-268.4,416.4-266.6,418.3-266.6,420.5z M-269.4,421.1c-0.6,0-1.2,0.5-1.3,1.2c0,0.7,0.5,1.3,1.2,1.3c0.6,0,1.3-0.6,1.3-1.2
		S-268.8,421.2-269.4,421.1z M-270.6,418.7c0-0.7-0.5-1.2-1.2-1.3c-0.7,0-1.3,0.5-1.3,1.2c0,0.7,0.6,1.3,1.2,1.3
		C-271.2,419.9-270.6,419.4-270.6,418.7z M-267.6,419.3c0-0.7-0.6-1.3-1.2-1.3c-0.6,0-1.2,0.6-1.2,1.2c0,0.7,0.6,1.3,1.2,1.3
		C-268.2,420.5-267.7,419.9-267.6,419.3z M-272.4,423c0.6,0,1.2-0.6,1.2-1.2c0-0.7-0.6-1.3-1.3-1.2c-0.7,0-1.2,0.6-1.2,1.3
		C-273.6,422.5-273.1,423.1-272.4,423z M-270.7,419.7c-0.2,0.4-0.5,0.7-0.5,0.9c0,0.2,0.4,0.5,0.5,0.5c0.2-0.1,0.5-0.3,0.5-0.6
		C-270.1,420.3-270.4,420.1-270.7,419.7z"/>
	<path class="st0" d="M-275.2,421.6c0.5,0.8,0.9,1.6,1.4,2.3C-275.1,423.9-275.7,423-275.2,421.6z"/>
</g>
</svg>
