<?xml version="1.0" encoding="utf-8"?>
<!-- Generator: Adobe Illustrator 19.1.1, SVG Export Plug-In . SVG Version: 6.00 Build 0)  -->
<svg version="1.1" id="Layer_1" xmlns="http://www.w3.org/2000/svg" xmlns:xlink="http://www.w3.org/1999/xlink" x="0px" y="0px"
	 viewBox="-241 403.9 113 34" style="enable-background:new -241 403.9 113 34;" xml:space="preserve">
<style type="text/css">
	.st0{fill:#633D90;}
</style>
<g>
	<g id="Layer_x0020_1_1_">
		<path class="st0" d="M-152.3,408.2c-0.3,0.9-0.8,1.8-1.4,2.5l0,0c-0.6,0.7-1.4,1.4-2.3,1.8c-0.8,0.4-1.7,0.6-2.6,0.5h-0.3v-0.3
			c-0.1-0.9,0-1.8,0.3-2.6c0.3-1,0.9-1.8,1.4-2.5l0,0c0.6-0.7,1.4-1.3,2.2-1.7c0.8-0.4,1.8-0.7,2.6-0.7h0.3v0.3
			C-151.9,406.4-152,407.4-152.3,408.2L-152.3,408.2z"/>
		<path class="st0" d="M-146.6,416.4c-0.3,0.2-3.2,2-3.2,5.6c0,4.4,3.7,5.9,3.9,6l0,0l0,0l0.3,0.1l-0.1,0.3l0,0
			c-0.1,0.3-0.7,2.4-2.2,4.5c-0.7,1-1.3,1.9-2.1,2.7c-0.8,0.8-1.8,1.3-2.9,1.3c-1.1,0-1.8-0.3-2.5-0.6c-0.7-0.3-1.4-0.6-2.6-0.6
			s-2,0.3-2.7,0.6c-0.6,0.3-1.3,0.6-2.3,0.6l0,0c-1.1,0-2.1-0.5-3-1.3c-0.8-0.8-1.6-1.8-2.2-2.8c-1.5-2.2-2.8-5.3-3.2-8.5
			c-0.3-2.6-0.1-5.3,1.2-7.5c0.7-1.2,1.7-2.2,2.9-2.9c1.2-0.7,2.5-1.1,3.8-1.1l0,0c1.2,0,2.3,0.4,3.3,0.8c0.7,0.3,1.3,0.5,1.8,0.5
			c0.4,0,1-0.2,1.7-0.5c1.2-0.5,2.7-1.1,4.2-0.9c0.7,0,2,0.2,3.4,0.9c0.9,0.5,1.8,1.2,2.5,2.3l0.2,0.3L-146.6,416.4
			C-146.5,416.4-146.5,416.4-146.6,416.4L-146.6,416.4z"/>
	</g>
	<g>
		<path class="st0" d="M-216.6,416.2c0,0.8-0.2,1.4-0.7,2s-1.1,0.9-1.9,0.9h-1.4l-0.2-1.2h1.2c0.5,0,0.9-0.1,1.3-0.4
			c0.4-0.3,0.6-0.7,0.6-1.2V413h1.1C-216.6,413-216.6,416.2-216.6,416.2z M-216.6,410.2c0,0.2-0.1,0.4-0.2,0.5
			c-0.1,0.1-0.4,0.2-0.6,0.2c-0.5,0-0.8-0.2-0.8-0.7c0-0.4,0.3-0.6,0.8-0.6C-216.9,409.5-216.6,409.7-216.6,410.2z"/>
		<path class="st0" d="M-213.8,416.3h-1v-6.7h1V416.3z"/>
		<path class="st0" d="M-204.3,415c0,0.4-0.2,0.8-0.5,1c-0.3,0.2-0.7,0.4-1.1,0.4h-3.3l-0.1-1h3.3c0.4,0,0.6-0.1,0.6-0.4
			c0-0.1-0.1-0.3-0.2-0.4l-2.4-2.5l0.7-0.7l2.4,2.5C-204.5,414.1-204.3,414.5-204.3,415z"/>
		<path class="st0" d="M-198.7,416.3h-0.7c0,0.8-0.3,1.4-0.8,1.9s-1.2,0.8-1.9,0.8h-1.4l-0.1-1h1.3c0.5,0,0.9-0.1,1.2-0.4
			c0.3-0.3,0.5-0.7,0.5-1.2c-0.9,0-1.5-0.1-1.9-0.4c-0.5-0.3-0.8-0.9-0.8-1.7c0-0.9,0.2-1.5,0.6-1.9c0.2-0.2,0.7-0.3,1.2-0.3
			c0.8,0,1.4,0.3,1.7,1c0.2,0.4,0.3,1.1,0.3,2.1h0.7v1.1H-198.7z M-200.5,415.3v-1c0-0.3-0.1-0.5-0.2-0.8c-0.2-0.2-0.4-0.4-0.7-0.4
			c-0.3,0-0.6,0.1-0.7,0.3c-0.1,0.2-0.1,0.4-0.1,0.8s0.2,0.7,0.6,0.9C-201.4,415.3-201,415.3-200.5,415.3z"/>
		<path class="st0" d="M-195.1,416.3h-0.3c-0.7,0-1.2-0.1-1.5-0.4c-0.3,0.2-0.5,0.3-0.7,0.4c-0.1,0-0.6,0-1.4,0v-1.1
			c0.2,0,0.5,0,0.8,0s0.6-0.1,0.7-0.3c0.1-0.1,0.1-0.4,0.1-0.8v-4.5h1.1v4.9c0,0.4,0.1,0.6,0.3,0.7c0.1,0,0.4,0.1,1,0.1v1H-195.1z"
			/>
		<path class="st0" d="M-192.3,414.6c0,0.5-0.1,0.8-0.4,1.2s-0.7,0.5-1.1,0.5h-1.7v-1c1.1,0,1.7,0,1.8-0.1c0.2-0.1,0.4-0.4,0.4-1
			c0-0.1,0-0.3,0-0.6s0-0.5,0-0.6h1.1v1.6H-192.3z M-193.3,411.4c0,0.2-0.1,0.4-0.2,0.5c-0.1,0.1-0.3,0.2-0.5,0.2
			c-0.5,0-0.8-0.2-0.8-0.7c0-0.4,0.3-0.6,0.8-0.6C-193.6,410.7-193.3,410.9-193.3,411.4z"/>
		<path class="st0" d="M-189.7,416.3h-1v-6.7h1V416.3z"/>
		<path class="st0" d="M-183,415c0,0.4-0.2,0.8-0.5,1c-0.3,0.2-0.7,0.4-1.1,0.4h-3.3l-0.1-1h3.3c0.4,0,0.6-0.1,0.6-0.4
			c0-0.1-0.1-0.3-0.2-0.4l-2.4-2.5l0.7-0.7l2.4,2.5C-183.2,414.1-183,414.5-183,415z"/>
		<path class="st0" d="M-221.6,430.8l-0.8,2.5h-1.1l2.7-8.1h1.3l2.8,8.1h-1.1l-0.9-2.5H-221.6z M-218.9,430l-0.8-2.3
			c-0.2-0.5-0.3-1-0.4-1.5l0,0c-0.1,0.5-0.3,1-0.4,1.5l-0.8,2.3H-218.9z"/>
		<path class="st0" d="M-215.6,429.4c0-0.7,0-1.3,0-1.9h0.9v1l0,0c0.4-0.7,1.1-1.1,2.1-1.1c1.4,0,2.5,1.2,2.5,3
			c0,2.1-1.3,3.1-2.6,3.1c-0.8,0-1.4-0.3-1.8-0.9l0,0v3.2h-1v-6.4H-215.6z M-214.6,431c0,0.2,0,0.3,0,0.4c0.2,0.7,0.8,1.2,1.6,1.2
			c1.1,0,1.8-0.9,1.8-2.2c0-1.2-0.6-2.2-1.7-2.2c-0.7,0-1.4,0.5-1.6,1.3c0,0.1-0.1,0.3-0.1,0.4C-214.6,429.9-214.6,431-214.6,431z"
			/>
		<path class="st0" d="M-208.8,429.4c0-0.7,0-1.3,0-1.9h0.9v1l0,0c0.4-0.7,1.1-1.1,2.1-1.1c1.4,0,2.5,1.2,2.5,3
			c0,2.1-1.3,3.1-2.6,3.1c-0.8,0-1.4-0.3-1.8-0.9l0,0v3.2h-1v-6.4H-208.8z M-207.8,431c0,0.2,0,0.3,0,0.4c0.2,0.7,0.8,1.2,1.6,1.2
			c1.1,0,1.8-0.9,1.8-2.2c0-1.2-0.6-2.2-1.7-2.2c-0.7,0-1.4,0.5-1.6,1.3c0,0.1-0.1,0.3-0.1,0.4V431z"/>
		<path class="st0" d="M-199.5,432.1c0.5,0.3,1.2,0.5,1.9,0.5c1.1,0,1.7-0.6,1.7-1.4s-0.4-1.2-1.5-1.6c-1.3-0.5-2.1-1.2-2.1-2.3
			c0-1.3,1-2.2,2.6-2.2c0.8,0,1.4,0.2,1.8,0.4l-0.3,0.9c-0.3-0.1-0.8-0.4-1.5-0.4c-1.1,0-1.5,0.7-1.5,1.2c0,0.8,0.5,1.1,1.6,1.6
			c1.4,0.5,2.1,1.2,2.1,2.4s-0.9,2.3-2.8,2.3c-0.8,0-1.6-0.2-2.1-0.5L-199.5,432.1z"/>
		<path class="st0" d="M-192.3,425.9v1.7h1.5v0.8h-1.5v3.1c0,0.7,0.2,1.1,0.8,1.1c0.3,0,0.5,0,0.6-0.1v0.8c-0.2,0.1-0.5,0.1-0.9,0.1
			c-0.5,0-0.9-0.2-1.1-0.4c-0.3-0.3-0.4-0.8-0.4-1.5v-3.2h-0.9v-0.8h0.9v-1.4L-192.3,425.9z"/>
		<path class="st0" d="M-184.4,430.4c0,2.1-1.5,3.1-2.9,3.1c-1.6,0-2.8-1.2-2.8-3c0-1.9,1.3-3.1,2.9-3.1
			C-185.5,427.4-184.4,428.6-184.4,430.4z M-189,430.4c0,1.3,0.7,2.2,1.8,2.2c1,0,1.8-0.9,1.8-2.3c0-1-0.5-2.2-1.7-2.2
			C-188.5,428.2-189,429.3-189,430.4z"/>
		<path class="st0" d="M-183.1,429.3c0-0.7,0-1.3,0-1.8h0.9v1.1l0,0c0.3-0.8,0.9-1.3,1.6-1.3c0.1,0,0.2,0,0.3,0v1
			c-0.1,0-0.2,0-0.4,0c-0.7,0-1.3,0.6-1.4,1.4c0,0.1,0,0.3,0,0.5v3.1h-1C-183.1,433.3-183.1,429.3-183.1,429.3z"/>
		<path class="st0" d="M-178.7,430.6c0,1.4,0.9,2,2,2c0.8,0,1.2-0.1,1.6-0.3l0.2,0.8c-0.4,0.2-1,0.4-1.9,0.4c-1.8,0-2.9-1.2-2.9-2.9
			c0-1.7,1-3.1,2.7-3.1c1.9,0,2.4,1.7,2.4,2.7c0,0.2,0,0.4,0,0.5h-4.1V430.6z M-175.6,429.9c0-0.7-0.3-1.7-1.5-1.7
			c-1.1,0-1.5,1-1.6,1.7H-175.6z"/>
	</g>
</g>
</svg>
