<?xml version="1.0" encoding="utf-8"?>
<!-- Generator: Adobe Illustrator 19.1.1, SVG Export Plug-In . SVG Version: 6.00 Build 0)  -->
<svg version="1.1" id="Layer_1" xmlns="http://www.w3.org/2000/svg" xmlns:xlink="http://www.w3.org/1999/xlink" x="0px" y="0px"
	 viewBox="-284 407.5 26.7 27.4" style="enable-background:new -284 407.5 26.7 27.4;" xml:space="preserve">
<style type="text/css">
	.st0{fill:#633D90;}
</style>
<g>
	<path class="st0" d="M-283.6,421.4c0-0.6,0-1.2,0-1.7c0-0.3,0.1-0.6,0.1-0.9c0.4-2.5,1.4-4.8,3-6.7c2-2.3,4.5-3.8,7.6-4.3
		c0.5-0.2,0.9-0.2,1.4-0.3c0.6,0,1.2,0,1.8,0c0.1,0,0.1,0,0.2,0c1.3,0.1,2.6,0.4,3.8,0.9c4.3,1.9,6.9,5.1,7.8,9.8
		c0.1,0.4,0.1,0.9,0.2,1.3c0,0.6,0,1.2,0,1.8c0,0.1,0,0.1,0,0.2c-0.1,1.6-0.5,3.1-1.2,4.5c-2,3.9-5.1,6.3-9.5,7.2
		c-0.4,0.1-0.9,0.1-1.3,0.2c-0.6,0-1.2,0-1.8,0c-0.3,0-0.6-0.1-0.9-0.1c-2.1-0.3-4.1-1.1-5.9-2.4c-2.9-2.1-4.6-5-5.2-8.6
		C-283.6,422.1-283.6,421.7-283.6,421.4z M-270.6,409.1c-6.4,0-11.5,5.1-11.5,11.4c0,6.3,5.1,11.4,11.4,11.4
		c6.3,0,11.4-5.1,11.4-11.4C-259.2,414.2-264.3,409.1-270.6,409.1z"/>
	<path class="st0" d="M-269.7,426.2c-0.9,0-1.7,0-2.6,0c0-1.9,0-3.8,0-5.7c-0.4,0-0.8,0-1.3,0c0-0.7,0-1.3,0-2c0.4,0,0.8,0,1.2,0
		c0-0.3,0-0.7,0-1c0-0.4,0-0.7,0.1-1.1c0.2-1,0.9-1.5,1.9-1.6c0.2,0,0.4,0,0.7,0c0.6,0,1.1,0,1.7,0c0,0.7,0,1.3,0,2
		c-0.2,0-0.4,0-0.7,0c-0.2,0-0.3,0-0.5,0c-0.6,0-0.8,0.2-0.8,0.8c0,0.3,0,0.6,0,1c0.6,0,1.2,0,1.9,0c-0.1,0.7-0.1,1.3-0.2,2
		c-0.6,0-1.1,0-1.7,0C-269.7,422.4-269.7,424.3-269.7,426.2z"/>
</g>
</svg>
