<?xml version="1.0" encoding="utf-8"?>
<!-- Generator: Adobe Illustrator 19.1.1, SVG Export Plug-In . SVG Version: 6.00 Build 0)  -->
<svg version="1.1" id="Layer_1" xmlns="http://www.w3.org/2000/svg" xmlns:xlink="http://www.w3.org/1999/xlink" x="0px" y="0px"
	 viewBox="-284 407.5 26.7 27.4" style="enable-background:new -284 407.5 26.7 27.4;" xml:space="preserve">
<style type="text/css">
	.st0{fill:#633D90;}
</style>
<g>
	<path class="st0" d="M-271.1,407.5c0.6,0,1.2,0,1.8,0c0.1,0,0.1,0,0.2,0c1.3,0.1,2.6,0.4,3.8,0.9c4.3,1.9,6.9,5.1,7.9,9.8
		c0.1,0.4,0.1,0.9,0.2,1.3c0,0.6,0,1.2,0,1.8c0,0.1,0,0.1,0,0.2c-0.1,0.6-0.1,1.1-0.3,1.7c-1.5,6.7-7.8,11.2-14.5,10.2
		c-2.1-0.3-4.1-1.1-5.9-2.4c-4.1-3.1-5.8-7.2-5.2-12.3c0.3-2.5,1.3-4.8,3-6.7c2-2.3,4.6-3.8,7.6-4.3
		C-272,407.6-271.6,407.6-271.1,407.5z M-281.7,420.5c0,6.3,5.1,11.4,11.4,11.4c6.3,0,11.5-5.1,11.5-11.4c0-6.3-5.1-11.5-11.4-11.5
		C-276.6,409.1-281.7,414.2-281.7,420.5z"/>
	<path class="st0" d="M-276,420.5c0-1.5,0-3,0-4.6c0-0.8,0.6-1.4,1.4-1.4c2.9,0,5.8,0,8.7,0c0.8,0,1.4,0.5,1.4,1.3
		c0,3.1,0,6.2,0,9.3c0,0.8-0.6,1.3-1.3,1.3c-2.9,0-5.8,0-8.8,0c-0.8,0.1-1.4-0.4-1.4-1.3C-276,423.6-276,422-276,420.5z
		 M-274.7,419.4c0,0.1,0,0.2,0,0.3c0,1.6,0,3.3,0,4.9c0,0.5,0.1,0.6,0.6,0.6c2.6,0,5.2,0,7.7,0c0.5,0,0.6-0.1,0.6-0.6
		c0-1.6,0-3.3,0-4.9c0-0.1,0-0.2,0-0.3c-0.4,0-0.7,0-1.1,0c0.4,1.7,0,3.2-1.4,4.2c-1.2,0.8-2.4,0.9-3.7,0.2c-1.7-1-2.1-2.5-1.8-4.4
		C-274,419.4-274.4,419.4-274.7,419.4z M-267.9,420.5c0-1.3-1-2.4-2.3-2.4c-1.3,0-2.3,1.1-2.3,2.4c0,1.3,1,2.4,2.3,2.4
		C-269,422.9-267.9,421.8-267.9,420.5z M-265.8,416.5c0-0.2,0-0.4,0-0.5c0-0.3-0.2-0.5-0.5-0.5c-0.3,0-0.7,0-1,0
		c-0.3,0-0.5,0.2-0.5,0.5c0,0.4,0,0.7,0,1.1c0,0.3,0.2,0.5,0.5,0.5c0.4,0,0.7,0,1.1,0c0.3,0,0.4-0.2,0.4-0.5
		C-265.8,416.9-265.8,416.7-265.8,416.5z"/>
</g>
</svg>
