<?xml version="1.0" encoding="utf-8"?>
<!-- Generator: Adobe Illustrator 19.1.1, SVG Export Plug-In . SVG Version: 6.00 Build 0)  -->
<svg version="1.1" id="Layer_1" xmlns="http://www.w3.org/2000/svg" xmlns:xlink="http://www.w3.org/1999/xlink" x="0px" y="0px"
	 viewBox="-284 407.5 26.7 27.4" style="enable-background:new -284 407.5 26.7 27.4;" xml:space="preserve">
<style type="text/css">
	.st0{fill:#633D90;}
</style>
<g>
	<path class="st0" d="M-271.5,407.5c0.6,0,1.2,0,1.8,0c0.1,0,0.1,0,0.2,0c1.3,0.1,2.6,0.4,3.8,0.9c4.3,1.9,6.9,5.1,7.9,9.8
		c0.1,0.4,0.1,0.9,0.2,1.3c0,0.6,0,1.2,0,1.8c0,0.1,0,0.1,0,0.2c-0.1,0.6-0.1,1.1-0.3,1.7c-1.4,6.6-7.8,11.1-14.5,10.1
		c-2.1-0.3-4.1-1.1-5.9-2.4c-4.1-3.1-5.8-7.2-5.2-12.3c0.3-2.5,1.3-4.8,3-6.7c2-2.3,4.6-3.8,7.6-4.3
		C-272.5,407.6-272,407.6-271.5,407.5z M-282.1,420.5c0,6.3,5.1,11.4,11.4,11.5c6.3,0,11.5-5.1,11.5-11.4c0-6.3-5.1-11.5-11.4-11.5
		C-277,409.1-282.1,414.2-282.1,420.5z"/>
	<path class="st0" d="M-271.5,422.6c-0.2,0.7-0.3,1.4-0.5,2.1c-0.2,0.9-0.7,1.7-1.3,2.5c0,0-0.1,0.1-0.2,0.1c0-0.1-0.1-0.1-0.1-0.2
		c-0.2-1.3-0.1-2.6,0.3-3.9c0.3-1,0.5-2,0.7-3c0-0.1,0-0.2,0-0.3c-0.2-0.7-0.2-1.3,0-2c0.1-0.4,0.3-0.7,0.6-0.9
		c0.7-0.5,1.6-0.1,1.6,0.8c0,0.5-0.1,1-0.2,1.5s-0.3,1-0.4,1.4c-0.1,0.5,0,0.9,0.3,1.2c0.4,0.3,0.8,0.4,1.3,0.2
		c0.4-0.1,0.7-0.4,0.9-0.7c0.6-0.8,0.8-1.6,0.9-2.5c0.1-0.6,0.1-1.2-0.1-1.7c-0.3-1.1-1-1.8-2.2-2c-1.6-0.3-3.3,0.4-4,2
		c-0.3,0.7-0.4,1.4-0.3,2.2c0.1,0.3,0.2,0.6,0.4,0.9c0.1,0.2,0.2,0.4,0.1,0.6c-0.1,0.2-0.1,0.3-0.1,0.5c-0.1,0.3-0.2,0.4-0.5,0.2
		c-0.6-0.3-0.9-0.7-1.1-1.3c-0.5-1.8-0.2-3.3,0.9-4.7c1.1-1.4,2.6-1.9,4.3-1.9c2.1,0,4,1.4,4.3,3.5c0.4,2,0,3.8-1.5,5.3
		c-0.6,0.7-1.4,1-2.4,1C-270.4,423.5-271,423.2-271.5,422.6z"/>
</g>
</svg>
