<?xml version="1.0" encoding="utf-8"?>
<!-- Generator: Adobe Illustrator 19.1.1, SVG Export Plug-In . SVG Version: 6.00 Build 0)  -->
<svg version="1.1" id="Layer_1" xmlns="http://www.w3.org/2000/svg" xmlns:xlink="http://www.w3.org/1999/xlink" x="0px" y="0px"
	 viewBox="0 0 40 30" style="enable-background:new 0 0 40 30;" xml:space="preserve">
<style type="text/css">
	.st0{fill:#F07622;}
	.st1{fill:#FFFFFF;}
</style>
<rect class="st0" width="40" height="30"/>
<g id="Search">
	<path class="st1" d="M28.5,22.3l-4.6-4.6c1-1.2,1.5-2.7,1.5-4.3c0-1.8-0.7-3.6-2-4.9c-1.3-1.3-3-2-4.9-2c-1.8,0-3.6,0.7-4.9,2
		c-1.3,1.3-2,3-2,4.9s0.7,3.6,2,4.9c1.3,1.3,3,2,4.9,2c1.5,0,3-0.5,4.2-1.4l4.6,4.6L28.5,22.3z M14.8,17.1c-1-1-1.5-2.3-1.5-3.7
		c0-1.4,0.5-2.7,1.5-3.7c1-1,2.3-1.5,3.7-1.5c1.4,0,2.7,0.5,3.7,1.5c1,1,1.5,2.3,1.5,3.7c0,1.4-0.5,2.7-1.5,3.7
		c-1,1-2.3,1.5-3.7,1.5C17,18.6,15.7,18,14.8,17.1z"/>
</g>
</svg>
