<?xml version="1.0" encoding="utf-8"?>
<!-- Generator: Adobe Illustrator 19.1.1, SVG Export Plug-In . SVG Version: 6.00 Build 0)  -->
<svg version="1.1" id="Layer_1" xmlns="http://www.w3.org/2000/svg" xmlns:xlink="http://www.w3.org/1999/xlink" x="0px" y="0px"
	 viewBox="-284 407.5 26.7 27.4" style="enable-background:new -284 407.5 26.7 27.4;" xml:space="preserve">
<style type="text/css">
	.st0{fill:#633D90;}
</style>
<g>
	<path class="st0" d="M-271.5,407.5c0.6,0,1.2,0,1.8,0c0.1,0,0.1,0,0.2,0c1.3,0.1,2.6,0.4,3.8,0.9c4.3,1.9,6.9,5.1,7.9,9.8
		c0.1,0.4,0.1,0.9,0.2,1.3c0,0.6,0,1.2,0,1.8c0,0.1,0,0.1,0,0.2c-0.1,0.6-0.1,1.1-0.3,1.7c-1.4,6.6-7.8,11.1-14.5,10.1
		c-2.1-0.3-4.1-1.1-5.9-2.4c-4.1-3.1-5.8-7.2-5.2-12.3c0.3-2.5,1.3-4.8,3-6.7c2-2.3,4.6-3.8,7.6-4.3
		C-272.5,407.6-272,407.6-271.5,407.5z M-282.1,420.5c0,6.3,5.1,11.4,11.4,11.5c6.3,0,11.5-5.1,11.5-11.4c0-6.3-5.1-11.5-11.4-11.5
		C-277,409.1-282.1,414.2-282.1,420.5z"/>
	<path class="st0" d="M-270.2,423.5c-0.5,0.5-1,0.9-1.4,1.4c-0.2,0.2-0.3,0.2-0.6,0.2c-0.2,0-0.3-0.1-0.3-0.2
		c-0.4-1.1-0.7-2.2-1.1-3.4c0-0.1-0.1-0.2-0.2-0.2c-0.8-0.3-1.7-0.5-2.5-0.8c-0.1,0-0.2-0.1-0.3-0.1c-0.2-0.1-0.3-0.4,0-0.5
		c0.1-0.1,0.3-0.2,0.5-0.3c1-0.4,2.1-0.8,3.1-1.2c2.6-1,5.2-2,7.9-3c0.5-0.2,0.9,0.1,0.8,0.6c0,0.3-0.1,0.7-0.2,1
		c-0.5,2.2-0.9,4.4-1.4,6.5c-0.1,0.5-0.2,1.1-0.4,1.6c-0.1,0.6-0.6,0.8-1.1,0.4c-0.7-0.5-1.3-1-2-1.4
		C-269.7,423.9-270,423.7-270.2,423.5z M-272.2,424.3c0-0.1,0-0.1,0-0.1c0.1-0.6,0.1-1.2,0.2-1.9c0-0.1,0-0.2,0.1-0.3
		c1.4-1.2,2.7-2.5,4.1-3.7c0.4-0.3,0.7-0.6,1.1-1c0,0,0.1-0.1,0.1-0.2c-0.1,0-0.1-0.1-0.2,0c-0.1,0-0.2,0.1-0.3,0.1
		c-2,1.3-4,2.5-6.1,3.8c-0.1,0.1-0.1,0.1-0.1,0.2c0.1,0.3,0.2,0.6,0.3,0.9C-272.7,422.9-272.4,423.6-272.2,424.3z"/>
</g>
</svg>
